<?xml version="1.0" standalone="no"?><!DOCTYPE svg PUBLIC "-//W3C//DTD SVG 1.1//EN" "http://www.w3.org/Graphics/SVG/1.1/DTD/svg11.dtd"><svg t="1709896285617" class="icon" viewBox="0 0 1157 1024" version="1.1" xmlns="http://www.w3.org/2000/svg" p-id="1268" xmlns:xlink="http://www.w3.org/1999/xlink" width="225.9765625" height="200"><path d="M1108.781176 97.882353H48.941176a48.941176 48.941176 0 1 1 0-97.882353h1059.84a48.941176 48.941176 0 1 1 0 97.882353zM625.317647 554.541176H48.941176a48.941176 48.941176 0 1 1 0-97.882352h576.376471a48.941176 48.941176 0 1 1 0 97.882352zM1108.781176 1024H48.941176a48.941176 48.941176 0 1 1 0-97.882353h1059.84a48.941176 48.941176 0 1 1 0 97.882353zM937.863529 628.48l-104.207058-196.367059c-18.672941-35.162353 6.851765-77.477647 46.607058-77.477647h208.338824c39.755294 0 65.204706 42.315294 46.607059 77.477647l-104.207059 196.367059c-19.802353 37.345882-73.411765 37.345882-93.214118 0z" p-id="1269"></path></svg>